<?xml version="1.0" encoding="UTF-8" standalone="no"?>
<svg
   xmlns:dc="http://purl.org/dc/elements/1.1/"
   xmlns:cc="http://creativecommons.org/ns#"
   xmlns:rdf="http://www.w3.org/1999/02/22-rdf-syntax-ns#"
   xmlns:svg="http://www.w3.org/2000/svg"
   xmlns="http://www.w3.org/2000/svg"
   xmlns:sodipodi="http://sodipodi.sourceforge.net/DTD/sodipodi-0.dtd"
   xmlns:inkscape="http://www.inkscape.org/namespaces/inkscape"
   width="24"
   height="24"
   viewBox="0 0 24 24"
   version="1.1"
   id="svg845"
   sodipodi:docname="sun.svg"
   inkscape:version="1.0.1 (3bc2e813f5, 2020-09-07)">
  <metadata
     id="metadata851">
    <rdf:RDF>
      <cc:Work
         rdf:about="">
        <dc:format>image/svg+xml</dc:format>
        <dc:type
           rdf:resource="http://purl.org/dc/dcmitype/StillImage" />
      </cc:Work>
    </rdf:RDF>
  </metadata>
  <defs
     id="defs849" />
  <sodipodi:namedview
     pagecolor="#ffffff"
     bordercolor="#666666"
     borderopacity="1"
     objecttolerance="10"
     gridtolerance="10"
     guidetolerance="10"
     inkscape:pageopacity="0"
     inkscape:pageshadow="2"
     inkscape:window-width="1267"
     inkscape:window-height="1040"
     id="namedview847"
     showgrid="false"
     inkscape:zoom="17.229167"
     inkscape:cx="7.4591477"
     inkscape:cy="14.684083"
     inkscape:window-x="41"
     inkscape:window-y="82"
     inkscape:window-maximized="0"
     inkscape:current-layer="svg845"
     inkscape:document-rotation="0" />
  <path
     d="M 6.7652369,13.575574 H 3.4244256 v -1.64208 h 3.3408113 c -0.033663,0.269301 -0.056652,0.542707 -0.056652,0.82104 0,0.278333 0.022989,0.551739 0.056652,0.82104 z M 9.256272,7.5721306 6.890856,5.2067147 5.7299056,6.3676651 8.0953216,8.7330811 C 8.432769,8.2987509 8.8219419,7.909578 9.256272,7.5721306 Z m 9.203036,1.1609505 2.365416,-2.365416 -1.160951,-1.1609504 -2.365416,2.3654159 c 0.43351,0.3374474 0.822682,0.7274414 1.160951,1.1609505 z M 13.276904,6.1862153 c 0.278333,0 0.551739,0.022989 0.82104,0.056652 V 2.9020557 h -1.64208 V 6.242867 c 0.269301,-0.033663 0.542707,-0.056652 0.82104,-0.056652 z m 0,13.1366377 c -0.278333,0 -0.551739,-0.02299 -0.82104,-0.05665 v 3.340812 h 1.64208 v -3.340814 c -0.269301,0.03366 -0.542707,0.05665 -0.82104,0.05665 z m 6.511667,-7.389359 c 0.03366,0.269301 0.05665,0.542707 0.05665,0.82104 0,0.278333 -0.02299,0.551739 -0.05665,0.82104 h 3.340812 v -1.64208 z m -2.490214,6.003444 2.364595,2.364595 1.161772,-1.160951 -2.364595,-2.364595 c -0.338269,0.43351 -0.727441,0.822682 -1.161772,1.160951 z M 8.0945005,16.775166 5.7299056,19.139761 6.890856,20.300712 9.255451,17.936117 C 8.8219419,17.598669 8.4319479,17.209497 8.0945005,16.775166 Z m 1.8982443,-4.020632 c 0,1.811214 1.4729452,3.28416 3.2841592,3.28416 1.811214,0 3.28416,-1.472946 3.28416,-3.28416 0,-1.811214 -1.472946,-3.2841591 -3.28416,-3.2841591 -1.811214,0 -3.2841592,1.4729451 -3.2841592,3.2841591 z m 8.2103982,0 c 0,2.720926 -2.205313,4.926239 -4.926239,4.926239 -2.720926,0 -4.926239,-2.205313 -4.926239,-4.926239 0,-2.720926 2.205313,-4.9262389 4.926239,-4.9262389 2.720926,0 4.926239,2.2053129 4.926239,4.9262389 z"
     id="path843"
     style="stroke-width:0.82104" />
</svg>
